# xmcd
#
# Track frame offsets: 
#        182
#        19576
#        36573
#        53884
#        68612
#        78264
#        96223
#        117179
#        133546
#        154285
#        173234
#        192194
#        211718
#        234397
#        254959
#        274750
#        293514
#
# Disc length: 4181 seconds
#
# Revision: 1
# Processed by: cddbd v1.5.2PL0 Copyright (c) Steve Scherf et al.
# Submitted via: ExactAudioCopy v1.3
#
DISCID=ed105311
DTITLE=Champaign - Modern Heart and Woman In Flames
DYEAR=1984
DGENRE=Soul
TTITLE0=Let Your Body Rock
TTITLE1=Try Again
TTITLE2=Party Line
TTITLE3=Cool Running
TTITLE4=Walkin'
TTITLE5=Keep It Up
TTITLE6=Love Games
TTITLE7=Get It Again
TTITLE8=International Feel
TTITLE9=Off And On Love
TTITLE10=This Time
TTITLE11=Prisoner
TTITLE12=Intimate Strangers
TTITLE13=Woman In Flames
TTITLE14=Mardi Gras
TTITLE15=Be Mine Tonight
TTITLE16=Capture The Moon
EXTD=
EXTT0=
EXTT1=
EXTT2=
EXTT3=
EXTT4=
EXTT5=
EXTT6=
EXTT7=
EXTT8=
EXTT9=
EXTT10=
EXTT11=
EXTT12=
EXTT13=
EXTT14=
EXTT15=
EXTT16=
PLAYORDER=
